<?xml version="1.0"?>
<svg xmlns="http://www.w3.org/2000/svg" xmlns:xlink="http://www.w3.org/1999/xlink" version="1.1" id="Capa_1" x="0px" y="0px" viewBox="0 0 512 512" style="enable-background:new 0 0 512 512;" xml:space="preserve" width="512px" height="512px"><g><g>
	<g>
		<path d="M181.341,0C81.352,0,0.008,81.344,0.008,181.333s81.344,181.333,181.333,181.333s181.333-81.344,181.333-181.333    S281.331,0,181.341,0z M181.341,341.333c-88.235,0-160-71.765-160-160s71.765-160,160-160s160,71.765,160,160    S269.576,341.333,181.341,341.333z" data-original="#000000" class="active-path" data-old_color="#000000" fill="#55585D"/>
	</g>
</g><g>
	<g>
		<path d="M508.872,493.803L309.555,294.485c-4.16-4.16-10.923-4.16-15.083,0c-4.16,4.16-4.16,10.923,0,15.083l199.317,199.317    c2.091,2.069,4.821,3.115,7.552,3.115c2.731,0,5.461-1.045,7.531-3.115C513.032,504.725,513.032,497.963,508.872,493.803z" data-original="#000000" class="active-path" data-old_color="#000000" fill="#55585D"/>
	</g>
</g></g> </svg>
